<?xml version="1.0" standalone="no"?>
<!DOCTYPE svg PUBLIC "-//W3C//DTD SVG 20010904//EN"
 "http://www.w3.org/TR/2001/REC-SVG-20010904/DTD/svg10.dtd">
<svg version="1.0" xmlns="http://www.w3.org/2000/svg"
 width="1024.000000pt" height="1024.000000pt" viewBox="0 0 1024.000000 1024.000000"
 preserveAspectRatio="xMidYMid meet">

<g transform="translate(0.000000,1024.000000) scale(0.100000,-0.100000)"
fill="#000000" stroke="none">
<path d="M0 5120 l0 -5120 5120 0 5120 0 0 5120 0 5120 -5120 0 -5120 0 0
-5120z m5368 3665 c436 -1018 680 -1575 931 -2123 152 -332 265 -589 367 -837
18 -44 83 -195 144 -335 61 -140 113 -262 116 -270 7 -24 -68 129 -105 215
-19 43 -37 72 -39 65 -3 -8 -13 -23 -23 -33 -13 -15 -16 -25 -9 -38 6 -10 10
-32 10 -49 0 -24 -4 -31 -15 -26 -8 3 -14 0 -12 -7 1 -7 -5 -11 -13 -9 -10 1
-9 -2 4 -13 18 -13 18 -15 2 -15 -14 0 -16 -6 -10 -36 5 -27 4 -35 -5 -30 -6
4 -11 3 -11 -3 0 -5 6 -12 13 -15 6 -4 2 -4 -11 -2 -12 2 -20 0 -16 -5 3 -5 0
-9 -7 -9 -6 0 -9 -8 -6 -20 8 -30 -30 -48 -49 -23 -17 22 41 -117 86 -206 97
-194 564 -1324 749 -1816 282 -751 474 -1174 662 -1460 50 -77 94 -142 98
-145 22 -17 61 -82 55 -92 -4 -6 -3 -8 3 -5 6 4 53 -46 104 -111 51 -64 134
-159 185 -210 50 -50 87 -92 83 -92 -3 0 -12 7 -19 15 -7 8 -16 13 -20 10 -4
-2 -16 2 -26 10 -18 15 -18 15 1 9 15 -5 12 2 -13 25 -17 18 -37 29 -42 26 -5
-3 -7 0 -5 7 7 17 -58 81 -84 83 -13 1 -21 -6 -24 -21 -2 -13 0 -21 5 -17 6 3
5 -4 -1 -15 -8 -16 -7 -21 5 -26 9 -3 19 -4 22 -2 4 2 13 -3 21 -12 13 -13 12
-14 -13 -8 -16 4 -94 36 -175 72 -371 163 -679 372 -951 644 -244 243 -453
540 -716 1015 -66 121 -394 768 -394 779 0 2 -55 116 -121 252 -67 137 -134
276 -149 309 -25 56 -236 505 -424 905 -46 96 -120 255 -166 353 -46 97 -85
176 -87 174 -1 -2 27 -68 63 -148 37 -80 66 -157 66 -174 -1 -17 2 -24 7 -17
5 9 11 4 20 -14 10 -24 10 -26 -3 -15 -10 8 -16 9 -21 1 -3 -5 0 -13 9 -16 8
-3 17 -13 20 -21 5 -13 4 -14 -9 -3 -18 15 -20 -1 -3 -18 9 -9 9 -12 -1 -12
-7 0 -11 -6 -8 -15 4 -8 2 -17 -2 -19 -5 -3 -5 -25 -1 -48 9 -46 5 -62 -12
-52 -7 4 -8 2 -4 -5 4 -6 10 -9 14 -7 4 2 7 -6 7 -19 0 -13 -3 -21 -8 -18 -4
2 -6 -16 -5 -40 2 -25 6 -43 11 -40 12 7 8 -12 -5 -26 -8 -9 -8 -11 -2 -8 12
7 13 2 18 -95 1 -32 5 -60 9 -64 4 -4 1 -14 -6 -22 -10 -13 -9 -15 5 -9 12 4
15 2 11 -8 -3 -8 -9 -13 -13 -10 -5 3 -11 1 -15 -5 -3 -5 -1 -10 5 -10 6 0 8
-4 5 -10 -3 -5 0 -8 7 -5 10 4 13 -8 12 -47 -1 -29 2 -63 7 -75 5 -13 4 -34
-2 -52 -8 -22 -6 -38 6 -66 31 -75 7 -43 -32 42 -23 49 -62 134 -88 189 l-47
101 -75 -19 c-41 -10 -80 -17 -86 -15 -5 1 27 11 71 22 45 10 82 20 82 21 0 9
-400 851 -560 1179 -67 138 -160 331 -207 430 -251 533 -336 706 -381 773
l-41 62 91 193 c49 105 104 221 120 257 17 36 116 245 221 465 104 220 209
441 232 490 24 50 78 162 120 250 42 88 97 203 122 255 25 52 63 128 86 169
l40 74 18 -34 c9 -19 111 -254 227 -524z m-1682 -2492 c-8 -15 -15 -25 -16
-21 0 12 23 58 27 54 3 -2 -2 -17 -11 -33z m-60 -129 c-19 -38 -35 -66 -36
-62 0 11 63 138 68 134 2 -2 -13 -35 -32 -72z m-109 -240 c-136 -294 -150
-324 -154 -320 -2 2 47 112 108 245 62 133 113 240 115 238 2 -2 -29 -75 -69
-163z m-191 -410 c-19 -38 -35 -66 -36 -63 0 12 62 140 67 136 2 -3 -12 -36
-31 -73z m-36 -82 c0 -5 -7 -17 -15 -28 -14 -18 -14 -17 -4 9 12 27 19 34 19
19z m4457 -68 c-3 -3 -12 -4 -19 -1 -8 3 -5 6 6 6 11 1 17 -2 13 -5z m-4506
-31 c-12 -20 -14 -14 -5 12 4 9 9 14 11 11 3 -2 0 -13 -6 -23z m-21 -51 c0 -5
-7 -17 -15 -28 -14 -18 -14 -17 -4 9 12 27 19 34 19 19z m3724 -98 c3 -8 2
-12 -4 -9 -6 3 -10 10 -10 16 0 14 7 11 14 -7z m-3813 -91 c-12 -20 -14 -14
-5 12 4 9 9 14 11 11 3 -2 0 -13 -6 -23z m2145 -793 l170 -399 -50 -10 c-28
-6 -100 -19 -161 -30 -415 -74 -685 -129 -925 -187 -80 -19 -215 -50 -300 -69
-85 -18 -148 -34 -139 -34 9 -1 59 8 110 18 120 24 274 19 289 -10 7 -12 7
-20 0 -24 -6 -4 -8 -10 -5 -15 3 -5 -3 -14 -12 -20 -16 -10 -16 -11 -1 -6 10
3 20 1 23 -4 4 -6 0 -10 -7 -10 -9 0 -9 -3 2 -10 8 -5 10 -10 5 -10 -19 0 -14
-38 5 -43 11 -3 21 -2 23 2 2 3 3 1 1 -5 -1 -6 2 -17 7 -23 5 -6 6 -9 3 -6 -4
3 -14 -1 -23 -8 -14 -10 -14 -10 -3 5 9 11 10 18 2 23 -5 3 -10 -1 -10 -10 0
-10 -5 -14 -12 -10 -7 4 -3 -2 10 -13 12 -11 22 -30 22 -42 0 -13 4 -19 11
-14 8 5 10 0 6 -17 -6 -25 4 -52 19 -49 5 1 10 -3 12 -9 2 -6 -1 -11 -6 -11
-5 0 -9 -10 -8 -22 0 -13 7 -23 14 -23 15 0 32 -24 32 -45 0 -13 -1 -13 -10 0
-6 11 -8 4 -7 -23 2 -24 9 -42 20 -48 15 -9 16 -7 7 17 -8 20 -7 30 1 38 9 8
10 8 5 -2 -4 -6 -1 -19 7 -27 9 -8 13 -24 10 -34 -4 -16 -1 -19 16 -16 12 2
19 0 16 -6 -4 -5 -14 -9 -24 -9 -10 0 -21 -3 -25 -7 -11 -12 -36 -12 -36 0 0
5 -3 8 -6 5 -3 -4 -4 -9 -2 -12 2 -3 -6 -12 -17 -20 -11 -9 -15 -16 -8 -16 6
0 15 5 18 10 8 13 22 5 36 -22 8 -15 8 -19 0 -14 -6 4 -11 3 -11 -1 0 -5 -8
-9 -17 -10 -10 -1 -33 -2 -50 -4 -18 -1 -33 -6 -33 -11 0 -12 -2 -12 246 33
124 22 230 39 236 37 6 -2 -43 -14 -108 -25 -66 -12 -130 -24 -144 -27 -13 -3
-40 -8 -60 -11 -20 -3 -47 -8 -60 -11 -55 -12 -574 -102 -800 -139 -391 -64
-1136 -193 -1410 -245 -85 -16 -170 -32 -189 -35 -257 -44 -1045 -244 -1123
-286 -19 -10 -20 -9 -13 43 17 137 80 413 121 536 152 451 384 762 737 985
257 164 603 276 1367 442 113 25 234 52 270 60 36 8 119 26 185 40 197 40 268
55 305 66 39 10 714 166 844 194 10 2 57 14 105 25 164 39 296 69 311 69 10 1
67 -121 186 -399z m208 34 c3 -8 2 -12 -4 -9 -6 3 -10 10 -10 16 0 14 7 11 14
-7z m-1337 -720 c-3 -3 -12 -4 -19 -1 -8 3 -5 6 6 6 11 1 17 -2 13 -5z m153
-148 c0 -3 -4 -8 -10 -11 -5 -3 -10 -1 -10 4 0 6 5 11 10 11 6 0 10 -2 10 -4z
m807 -382 c-3 -3 -12 -4 -19 -1 -8 3 -5 6 6 6 11 1 17 -2 13 -5z m-50 -10 c-3
-3 -12 -4 -19 -1 -8 3 -5 6 6 6 11 1 17 -2 13 -5z m-50 -10 c-3 -3 -12 -4 -19
-1 -8 3 -5 6 6 6 11 1 17 -2 13 -5z m-50 -10 c-3 -3 -12 -4 -19 -1 -8 3 -5 6
6 6 11 1 17 -2 13 -5z m-54 -11 c-7 -2 -19 -2 -25 0 -7 3 -2 5 12 5 14 0 19
-2 13 -5z m-43 -7 c0 -2 -11 -6 -25 -8 -13 -3 -22 -1 -19 3 5 9 44 13 44 5z
m-63 -12 c-3 -3 -12 -4 -19 -1 -8 3 -5 6 6 6 11 1 17 -2 13 -5z m-2836 -936
c-10 -18 -24 -58 -31 -88 -7 -30 -15 -59 -19 -65 -3 -5 -6 -12 -6 -15 -1 -3
-7 -23 -13 -45 -8 -26 -8 -43 -2 -49 7 -7 10 -6 10 2 0 7 5 12 11 12 5 0 7 -4
4 -10 -3 -5 3 -10 15 -10 13 0 19 -4 14 -12 -5 -7 -3 -8 6 -3 7 4 16 2 21 -6
6 -9 12 -10 17 -4 10 14 42 15 39 1 -1 -6 7 -11 18 -11 11 0 20 -5 20 -12 0
-6 4 -15 9 -20 5 -5 6 -3 2 5 -4 7 -1 12 8 12 9 0 15 -3 15 -7 -3 -20 2 -31
17 -37 14 -6 15 -4 3 10 -11 14 -10 15 7 12 10 -1 22 -7 25 -12 4 -4 21 -9 38
-10 18 0 31 -6 31 -13 0 -7 5 -13 11 -13 5 0 8 4 5 9 -7 11 13 9 33 -3 7 -5
16 -5 20 0 8 12 51 14 51 3 0 -5 5 -9 11 -9 5 0 7 5 4 10 -8 12 17 9 26 -3 4
-5 16 1 28 14 11 12 21 18 21 13 0 -29 -253 -303 -370 -401 -164 -136 -415
-285 -570 -336 -9 -3 -5 -6 10 -8 14 -1 3 -5 -25 -9 -27 -4 -51 -7 -51 -6 -1
1 67 165 152 366 85 201 191 453 236 560 77 185 108 247 95 190 -5 -21 -4 -22
6 -9 12 16 46 38 59 39 4 0 -1 -15 -11 -32z m163 -317 c3 -5 -1 -11 -9 -14 -9
-4 -12 -1 -8 9 6 16 10 17 17 5z m6349 -584 c2 -6 -2 -18 -9 -25 -12 -11 -14
-8 -14 13 0 26 14 34 23 12z m77 -97 c18 -12 2 -12 -25 0 -13 6 -15 9 -5 9 8
0 22 -4 30 -9z"/>
<path d="M5230 5705 c0 -5 5 -17 10 -25 5 -8 10 -10 10 -5 0 6 -5 17 -10 25
-5 8 -10 11 -10 5z"/>
<path d="M6721 5645 c-1 -6 8 -28 19 -49 17 -34 17 -40 4 -54 -12 -11 -13 -17
-3 -23 13 -8 39 -1 39 10 -2 13 -58 125 -59 116z"/>
<path d="M5405 4791 c-3 -5 -2 -12 3 -15 5 -3 9 1 9 9 0 17 -3 19 -12 6z"/>
<path d="M5413 4543 c-15 -6 -17 -29 -3 -38 6 -4 7 1 3 11 -4 10 -2 15 4 11 5
-3 10 0 10 8 0 8 -1 15 -1 14 -1 0 -7 -3 -13 -6z"/>
<path d="M7550 2840 c6 -11 13 -20 16 -20 2 0 0 9 -6 20 -6 11 -13 20 -16 20
-2 0 0 -9 6 -20z"/>
<path d="M7571 2795 c1 -19 18 -51 18 -35 0 8 -4 22 -9 30 -5 8 -9 11 -9 5z"/>
<path d="M7627 2637 c-3 -9 1 -18 9 -21 16 -6 18 2 5 22 -7 11 -9 11 -14 -1z"/>
<path d="M7647 2583 c5 -12 2 -15 -10 -10 -9 3 -19 2 -22 -2 -2 -5 5 -11 16
-14 14 -4 18 -10 13 -19 -6 -10 -4 -10 9 1 17 13 23 6 18 -21 0 -5 3 -8 9 -8
5 0 7 -8 3 -17 -4 -13 -3 -15 6 -8 8 8 5 24 -11 63 -12 29 -25 52 -30 52 -4 0
-4 -8 -1 -17z"/>
<path d="M7705 2453 c1 -17 9 -39 18 -48 21 -21 20 -11 -2 40 -18 40 -18 40
-16 8z"/>
<path d="M7753 2313 c-7 -15 -11 -29 -8 -31 3 -3 5 0 5 6 0 9 5 9 19 0 15 -9
17 -16 10 -30 -8 -15 -6 -18 11 -18 19 0 20 2 6 35 -27 64 -30 66 -43 38z"/>
<path d="M7808 2214 c-3 -12 -1 -29 5 -40 7 -13 7 -19 -1 -22 -7 -2 -12 -8
-12 -14 0 -7 5 -7 13 1 11 8 16 5 25 -14 11 -24 7 -30 -19 -27 -3 1 -6 -6 -6
-14 0 -9 7 -12 19 -8 10 3 18 1 18 -4 0 -5 10 -14 23 -20 21 -10 21 -11 -8
-12 -16 -1 -24 -4 -17 -7 6 -2 9 -10 5 -16 -4 -7 1 -5 11 3 16 13 20 12 31 -3
8 -12 15 -14 20 -8 3 6 1 11 -5 11 -6 0 -9 4 -5 9 3 5 -4 16 -15 24 -11 7 -17
17 -14 20 9 8 -16 67 -28 67 -5 0 -7 3 -5 8 2 4 -3 25 -13 47 -14 33 -17 36
-22 19z m62 -130 c0 -8 -4 -12 -10 -9 -5 3 -10 10 -10 16 0 5 5 9 10 9 6 0 10
-7 10 -16z"/>
<path d="M7864 1999 c-5 -8 -3 -9 6 -4 8 5 11 3 8 -6 -3 -8 -11 -13 -17 -11
-7 1 -10 -2 -6 -8 8 -13 48 7 42 23 -5 16 -24 20 -33 6z"/>
<path d="M7904 1978 c-4 -6 -2 -14 4 -16 7 -2 12 -8 12 -13 0 -4 -7 -6 -15 -3
-8 4 -15 1 -15 -6 0 -6 5 -8 10 -5 6 3 10 1 10 -5 0 -7 6 -5 15 4 12 12 14 20
5 36 -12 23 -16 24 -26 8z"/>
<path d="M7848 1933 c7 -3 16 -2 19 1 4 3 -2 6 -13 5 -11 0 -14 -3 -6 -6z"/>
<path d="M7963 1888 c1 -7 -4 -12 -10 -10 -7 1 -13 -2 -13 -8 0 -5 -3 -9 -7
-9 -26 4 -33 -5 -8 -10 17 -3 30 -11 30 -16 0 -22 18 -36 43 -33 20 2 27 -2
29 -17 2 -11 0 -14 -3 -7 -3 6 -15 12 -27 12 -20 -1 -21 -2 -5 -14 10 -7 15
-15 12 -18 -2 -3 7 -3 21 -1 29 6 28 5 14 37 -10 21 -17 24 -41 19 -22 -4 -27
-2 -23 9 4 9 -1 18 -10 22 -15 5 -15 7 -1 22 18 18 21 34 6 34 -5 0 -9 -6 -7
-12z"/>
<path d="M7990 1834 c0 -8 5 -12 10 -9 6 4 8 11 5 16 -9 14 -15 11 -15 -7z"/>
<path d="M8038 1728 c5 -21 6 -21 14 -2 6 15 8 13 7 -11 -2 -61 29 -99 63 -79
7 4 10 4 6 -1 -4 -4 0 -14 10 -22 15 -13 15 -13 -6 -3 -12 6 -27 8 -32 5 -6
-3 -10 -1 -10 5 0 6 -4 8 -10 5 -5 -3 -12 4 -16 17 -8 31 -70 83 -80 67 -4 -7
-3 -9 3 -6 12 8 36 -17 26 -26 -3 -4 1 -7 10 -7 9 0 21 -9 27 -19 12 -24 13
-34 2 -27 -5 3 -9 -1 -9 -9 0 -11 4 -12 14 -4 9 8 13 8 13 1 0 -6 9 -9 20 -7
25 5 37 -13 14 -22 -13 -5 -10 -12 22 -39 35 -30 37 -33 17 -34 -14 0 -23 -6
-23 -15 0 -8 5 -15 11 -15 5 0 8 4 5 9 -3 5 3 11 15 14 22 6 41 -26 31 -52 -3
-9 -1 -12 6 -7 6 3 16 0 23 -7 11 -11 16 -10 31 5 23 23 23 26 -7 50 -14 11
-23 24 -20 29 4 5 -1 9 -9 9 -9 0 -16 9 -16 20 0 11 -4 20 -10 20 -5 0 -10 4
-10 9 0 16 -73 121 -84 121 -7 0 -7 -3 -1 -8 6 -4 11 -14 13 -22 1 -10 -2 -9
-13 4 -10 13 -12 23 -5 30 6 6 4 16 -7 28 -23 25 -42 23 -35 -4z m117 -148 c3
-6 -1 -7 -9 -4 -18 7 -21 14 -7 14 6 0 13 -4 16 -10z m-15 -20 c8 -5 12 -11
10 -14 -3 -2 -14 2 -24 10 -22 15 -10 19 14 4z m35 -20 c-2 -12 2 -20 9 -20 7
0 21 -9 31 -20 16 -17 16 -21 2 -35 -14 -14 -16 -13 -22 7 -4 13 -14 31 -22
40 -9 10 -13 24 -10 33 9 22 17 19 12 -5z"/>
<path d="M8197 1490 c3 -11 9 -17 15 -14 5 3 4 12 -3 20 -16 19 -18 18 -12 -6z"/>
<path d="M8043 1525 c0 -8 4 -12 9 -9 5 3 6 10 3 15 -9 13 -12 11 -12 -6z"/>
<path d="M8295 1361 c-3 -5 -2 -12 3 -15 5 -3 9 1 9 9 0 17 -3 19 -12 6z"/>
<path d="M8330 1352 c0 -7 5 -12 10 -12 6 0 8 -11 4 -25 -4 -16 -2 -25 6 -25
7 0 10 -7 6 -16 -4 -10 -2 -13 6 -8 8 5 9 2 5 -10 -4 -10 -3 -15 3 -11 6 4 8
17 6 30 -3 13 0 25 5 27 6 2 -4 16 -21 33 -16 16 -30 23 -30 17z"/>
<path d="M8310 1290 c0 -5 5 -10 11 -10 5 0 7 5 4 10 -3 6 -8 10 -11 10 -2 0
-4 -4 -4 -10z"/>
<path d="M8399 1272 c9 -17 9 -27 1 -37 -7 -8 -7 -15 -1 -19 5 -4 13 -1 16 5
4 5 13 8 21 5 23 -9 16 9 -17 40 -28 25 -30 26 -20 6z"/>
<path d="M8155 1270 c3 -5 8 -10 11 -10 2 0 4 5 4 10 0 6 -5 10 -11 10 -5 0
-7 -4 -4 -10z"/>
<path d="M8280 1256 c0 -2 7 -7 16 -10 8 -3 12 -2 9 4 -6 10 -25 14 -25 6z"/>
<path d="M8347 1191 c-3 -13 3 -22 20 -30 32 -15 33 -14 33 10 0 11 -4 18 -9
14 -5 -3 -16 1 -24 10 -13 13 -15 12 -20 -4z m38 -21 c3 -6 -1 -7 -9 -4 -18 7
-21 14 -7 14 6 0 13 -4 16 -10z"/>
<path d="M8320 1190 c-9 -6 -10 -10 -3 -10 6 0 15 5 18 10 8 12 4 12 -15 0z"/>
<path d="M4227 3570 c3 -11 9 -20 13 -20 5 0 6 9 3 20 -3 11 -9 20 -13 20 -5
0 -6 -9 -3 -20z"/>
<path d="M3818 3563 c6 -2 18 -2 25 0 6 3 1 5 -13 5 -14 0 -19 -2 -12 -5z"/>
<path d="M3778 3553 c7 -3 16 -2 19 1 4 3 -2 6 -13 5 -11 0 -14 -3 -6 -6z"/>
<path d="M3728 3543 c7 -3 16 -2 19 1 4 3 -2 6 -13 5 -11 0 -14 -3 -6 -6z"/>
<path d="M3658 3533 c6 -2 18 -2 25 0 6 3 1 5 -13 5 -14 0 -19 -2 -12 -5z"/>
<path d="M3598 3523 c6 -2 18 -2 25 0 6 3 1 5 -13 5 -14 0 -19 -2 -12 -5z"/>
<path d="M4355 2990 c3 -5 8 -10 11 -10 2 0 4 5 4 10 0 6 -5 10 -11 10 -5 0
-7 -4 -4 -10z"/>
<path d="M4228 2933 c7 -3 16 -2 19 1 4 3 -2 6 -13 5 -11 0 -14 -3 -6 -6z"/>
<path d="M4173 2923 c9 -2 23 -2 30 0 6 3 -1 5 -18 5 -16 0 -22 -2 -12 -5z"/>
<path d="M1886 2045 c-9 -26 -7 -32 5 -12 6 10 9 21 6 23 -2 3 -7 -2 -11 -11z"/>
</g>
</svg>
